<?xml version="1.0" encoding="UTF-8" standalone="no"?>
<!-- Created with Inkscape (http://www.inkscape.org/) -->

<svg
   xmlns:dc="http://purl.org/dc/elements/1.1/"
   xmlns:cc="http://creativecommons.org/ns#"
   xmlns:rdf="http://www.w3.org/1999/02/22-rdf-syntax-ns#"
   xmlns:svg="http://www.w3.org/2000/svg"
   xmlns="http://www.w3.org/2000/svg"
   xmlns:sodipodi="http://sodipodi.sourceforge.net/DTD/sodipodi-0.dtd"
   xmlns:inkscape="http://www.inkscape.org/namespaces/inkscape"
   width="1920"
   height="1080"
   viewBox="0 0 1920 1080"
   id="svg2"
   version="1.1"
   inkscape:version="0.91 r13725"
   sodipodi:docname="drawing.svg">
  <defs
     id="defs4" />
  <sodipodi:namedview
     id="base"
     pagecolor="#ffffff"
     bordercolor="#666666"
     borderopacity="1.0"
     inkscape:pageopacity="0.0"
     inkscape:pageshadow="2"
     inkscape:zoom="0.98994949"
     inkscape:cx="432.33474"
     inkscape:cy="510.55984"
     inkscape:document-units="px"
     inkscape:current-layer="layer2"
     showgrid="false"
     units="px"
     showguides="true"
     inkscape:guide-bbox="true"
     inkscape:window-width="1920"
     inkscape:window-height="1043"
     inkscape:window-x="0"
     inkscape:window-y="0"
     inkscape:window-maximized="1">
    <sodipodi:guide
       position="939.44187,281.51689"
       orientation="1,0"
       id="guide4144" />
    <sodipodi:guide
       position="942.85715,276.60714"
       orientation="0,1"
       id="guide4152" />
    <sodipodi:guide
       position="842.85714,143.92857"
       orientation="0,1"
       id="guide4268" />
    <sodipodi:guide
       position="831.78572,143.92857"
       orientation="1,0"
       id="guide4270" />
    <sodipodi:guide
       position="813.75,116.60714"
       orientation="0,1"
       id="guide4272" />
    <sodipodi:guide
       position="826.33929,90.714286"
       orientation="0,1"
       id="guide4274" />
  </sodipodi:namedview>
  <metadata
     id="metadata7">
    <rdf:RDF>
      <cc:Work
         rdf:about="">
        <dc:format>image/svg+xml</dc:format>
        <dc:type
           rdf:resource="http://purl.org/dc/dcmitype/StillImage" />
        <dc:title></dc:title>
      </cc:Work>
    </rdf:RDF>
  </metadata>
  <g
     inkscape:label="back"
     inkscape:groupmode="layer"
     id="layer1"
     transform="translate(0,27.63781)"
     style="display:inline"
     sodipodi:insensitive="true">
    <rect
       style="fill:#1b303c;fill-opacity:1;stroke:none;stroke-opacity:1"
       id="rect4136"
       width="1934.2858"
       height="1077.1428"
       x="-2.8571429"
       y="-27.63781" />
  </g>
  <g
     inkscape:groupmode="layer"
     id="layer2"
     inkscape:label="front">
    <path
       transform="matrix(0.34777685,0,0,1.0125963,612.72575,-10.386657)"
       style="fill:none;fill-opacity:1;stroke:#73d216;stroke-width:3.37024522;stroke-linecap:round;stroke-linejoin:round;stroke-miterlimit:4;stroke-dasharray:none;stroke-opacity:1"
       inkscape:transform-center-y="-8.7990788"
       d="m 969.54376,850.90209 -30.3586,8.37663 -29.84513,-8.37663 21.2767,-47.29712 8.82516,-0.82889 8.37588,0.80684 z"
       id="path4141"
       inkscape:connector-curvature="0"
       sodipodi:nodetypes="ccccccc" />
    <path
       inkscape:transform-center-x="31.86897"
       sodipodi:nodetypes="ccccccc"
       inkscape:connector-curvature="0"
       id="path4154"
       d="m 912.86338,854.06241 3.88809,-4.25114 6.75884,-0.69497 3.12067,-15.78401 -9.79409,1.09741 -9.53239,26.46045 z"
       inkscape:transform-center-y="-44.907964"
       style="fill:none;fill-opacity:1;stroke:#73d216;stroke-width:1.92945969;stroke-linecap:round;stroke-linejoin:round;stroke-miterlimit:4;stroke-dasharray:none;stroke-opacity:1" />
    <path
       style="fill:none;fill-opacity:1;stroke:#73d216;stroke-width:1.92945969;stroke-linecap:round;stroke-linejoin:round;stroke-miterlimit:4;stroke-dasharray:none;stroke-opacity:1"
       inkscape:transform-center-y="-44.907964"
       d="m 921.03719,821.77555 8.18741,-1.05211 3.12067,-15.78401 -8.72266,7.52598 z"
       id="path4156"
       inkscape:connector-curvature="0"
       sodipodi:nodetypes="ccccc"
       inkscape:transform-center-x="31.86897" />
    <path
       style="fill:none;fill-opacity:1;stroke:#73d216;stroke-width:1.92945969;stroke-linecap:round;stroke-linejoin:round;stroke-miterlimit:4;stroke-dasharray:none;stroke-opacity:1"
       inkscape:transform-center-y="-44.907964"
       d="m 966.39986,854.06241 -3.8881,-4.25114 -6.75881,-0.69497 -3.12067,-15.78401 9.79408,1.09741 9.5324,26.46045 z"
       id="path4158"
       inkscape:connector-curvature="0"
       sodipodi:nodetypes="ccccccc"
       inkscape:transform-center-x="-31.86897" />
    <path
       inkscape:transform-center-x="-31.86897"
       sodipodi:nodetypes="ccccc"
       inkscape:connector-curvature="0"
       id="path4160"
       d="m 958.22607,821.77555 -8.18741,-1.05211 -3.12067,-15.78401 8.72266,7.52598 z"
       inkscape:transform-center-y="-44.907964"
       style="fill:none;fill-opacity:1;stroke:#73d216;stroke-width:1.92945969;stroke-linecap:round;stroke-linejoin:round;stroke-miterlimit:4;stroke-dasharray:none;stroke-opacity:1" />
    <path
       sodipodi:nodetypes="ccccccc"
       inkscape:connector-curvature="0"
       id="path4164"
       d="m 1115.5756,852.2438 -10.558,8.48215 -10.3794,-8.48215 7.3995,-47.89289 3.0692,-0.83933 2.9129,0.81701 z"
       inkscape:transform-center-y="-8.7990788"
       style="fill:none;fill-opacity:1;stroke:#73d216;stroke-width:2;stroke-linecap:round;stroke-linejoin:round;stroke-miterlimit:4;stroke-dasharray:none;stroke-opacity:1" />
    <path
       style="fill:none;fill-opacity:1;stroke:#73d216;stroke-width:1.92945969;stroke-linecap:round;stroke-linejoin:round;stroke-miterlimit:4;stroke-dasharray:none;stroke-opacity:1"
       inkscape:transform-center-y="-44.907964"
       d="m 1066.9116,845.98119 3.8881,-4.25114 6.7588,-0.69497 3.1207,-15.78401 -9.7941,1.09741 -9.5324,26.46045 z"
       id="path4166"
       inkscape:connector-curvature="0"
       sodipodi:nodetypes="ccccccc"
       inkscape:transform-center-x="31.86897" />
    <path
       inkscape:transform-center-x="31.86897"
       sodipodi:nodetypes="ccccc"
       inkscape:connector-curvature="0"
       id="path4168"
       d="m 1083.6717,821.77555 8.1874,-1.05211 3.1207,-15.78401 -8.7227,7.52598 z"
       inkscape:transform-center-y="-44.907964"
       style="fill:none;fill-opacity:1;stroke:#73d216;stroke-width:1.92945969;stroke-linecap:round;stroke-linejoin:round;stroke-miterlimit:4;stroke-dasharray:none;stroke-opacity:1" />
    <path
       inkscape:transform-center-x="-31.86897"
       sodipodi:nodetypes="ccccccc"
       inkscape:connector-curvature="0"
       id="path4170"
       d="m 1142.6715,844.46596 -3.8881,-4.25114 -6.7588,-0.69497 -3.1207,-15.78401 9.7941,1.09741 9.5324,26.46045 z"
       inkscape:transform-center-y="-44.907964"
       style="fill:none;fill-opacity:1;stroke:#73d216;stroke-width:1.92945969;stroke-linecap:round;stroke-linejoin:round;stroke-miterlimit:4;stroke-dasharray:none;stroke-opacity:1" />
    <path
       style="fill:none;fill-opacity:1;stroke:#73d216;stroke-width:1.92945969;stroke-linecap:round;stroke-linejoin:round;stroke-miterlimit:4;stroke-dasharray:none;stroke-opacity:1"
       inkscape:transform-center-y="-44.907964"
       d="m 1127.4267,820.76539 -8.1874,-1.05211 -3.1207,-15.78401 8.7227,7.52598 z"
       id="path4172"
       inkscape:connector-curvature="0"
       sodipodi:nodetypes="ccccc"
       inkscape:transform-center-x="-31.86897" />
    <path
       style="fill:none;fill-opacity:1;stroke:#73d216;stroke-width:2;stroke-linecap:round;stroke-linejoin:round;stroke-miterlimit:4;stroke-dasharray:none;stroke-opacity:1"
       inkscape:transform-center-y="-8.7990788"
       d="m 731.28988,851.52951 -10.558,8.48215 -10.3794,-8.48215 7.3995,-47.89289 3.0692,-0.83933 2.9129,0.81701 z"
       id="path4184"
       inkscape:connector-curvature="0"
       sodipodi:nodetypes="ccccccc" />
    <path
       inkscape:transform-center-x="31.86897"
       sodipodi:nodetypes="ccccccc"
       inkscape:connector-curvature="0"
       id="path4186"
       d="m 682.62588,845.2669 3.8881,-4.25114 6.7588,-0.69497 3.1207,-15.78401 -9.7941,1.09741 -9.5324,26.46045 z"
       inkscape:transform-center-y="-44.907964"
       style="fill:none;fill-opacity:1;stroke:#73d216;stroke-width:1.92945969;stroke-linecap:round;stroke-linejoin:round;stroke-miterlimit:4;stroke-dasharray:none;stroke-opacity:1" />
    <path
       style="fill:none;fill-opacity:1;stroke:#73d216;stroke-width:1.92945969;stroke-linecap:round;stroke-linejoin:round;stroke-miterlimit:4;stroke-dasharray:none;stroke-opacity:1"
       inkscape:transform-center-y="-44.907964"
       d="m 699.38598,821.06126 8.1874,-1.05211 3.1207,-15.78401 -8.7227,7.52598 z"
       id="path4188"
       inkscape:connector-curvature="0"
       sodipodi:nodetypes="ccccc"
       inkscape:transform-center-x="31.86897" />
    <path
       style="fill:none;fill-opacity:1;stroke:#73d216;stroke-width:1.92945969;stroke-linecap:round;stroke-linejoin:round;stroke-miterlimit:4;stroke-dasharray:none;stroke-opacity:1"
       inkscape:transform-center-y="-44.907964"
       d="m 758.38578,843.75167 -3.8881,-4.25114 -6.7588,-0.69497 -3.1207,-15.78401 9.7941,1.09741 9.5324,26.46045 z"
       id="path4190"
       inkscape:connector-curvature="0"
       sodipodi:nodetypes="ccccccc"
       inkscape:transform-center-x="-31.86897" />
    <path
       inkscape:transform-center-x="-31.86897"
       sodipodi:nodetypes="ccccc"
       inkscape:connector-curvature="0"
       id="path4192"
       d="m 743.14098,820.0511 -8.1874,-1.05211 -3.1207,-15.78401 8.7227,7.52598 z"
       inkscape:transform-center-y="-44.907964"
       style="fill:none;fill-opacity:1;stroke:#73d216;stroke-width:1.92945969;stroke-linecap:round;stroke-linejoin:round;stroke-miterlimit:4;stroke-dasharray:none;stroke-opacity:1" />
    <path
       style="fill:none;fill-opacity:1;stroke:#73d216;stroke-width:1.92945969;stroke-linecap:round;stroke-linejoin:round;stroke-miterlimit:4;stroke-dasharray:none;stroke-opacity:1"
       inkscape:transform-center-y="-44.907964"
       d="m 677.57512,877.08671 3.8881,-4.25114 6.7588,-0.69497 3.1207,-15.78401 -9.7941,1.09741 -9.5324,26.46045 z"
       id="path4194"
       inkscape:connector-curvature="0"
       sodipodi:nodetypes="ccccccc"
       inkscape:transform-center-x="31.86897" />
    <path
       inkscape:transform-center-x="31.86897"
       sodipodi:nodetypes="ccccc"
       inkscape:connector-curvature="0"
       id="path4196"
       d="m 694.33522,852.88107 8.1874,-1.05211 3.1207,-15.78401 -8.7227,7.52598 z"
       inkscape:transform-center-y="-44.907964"
       style="fill:none;fill-opacity:1;stroke:#73d216;stroke-width:1.92945969;stroke-linecap:round;stroke-linejoin:round;stroke-miterlimit:4;stroke-dasharray:none;stroke-opacity:1" />
    <path
       inkscape:transform-center-x="-31.86897"
       sodipodi:nodetypes="ccccccc"
       inkscape:connector-curvature="0"
       id="path4198"
       d="m 762.93147,875.0664 -3.8881,-4.25114 -6.7588,-0.69497 -3.1207,-15.78401 9.7941,1.09741 9.5324,26.46045 z"
       inkscape:transform-center-y="-44.907964"
       style="fill:none;fill-opacity:1;stroke:#73d216;stroke-width:1.92945969;stroke-linecap:round;stroke-linejoin:round;stroke-miterlimit:4;stroke-dasharray:none;stroke-opacity:1" />
    <path
       style="fill:none;fill-opacity:1;stroke:#73d216;stroke-width:1.92945969;stroke-linecap:round;stroke-linejoin:round;stroke-miterlimit:4;stroke-dasharray:none;stroke-opacity:1"
       inkscape:transform-center-y="-44.907964"
       d="m 747.68667,851.36583 -8.1874,-1.05211 -3.1207,-15.78401 8.7227,7.52598 z"
       id="path4200"
       inkscape:connector-curvature="0"
       sodipodi:nodetypes="ccccc"
       inkscape:transform-center-x="-31.86897" />
    <path
       inkscape:transform-center-x="31.86897"
       sodipodi:nodetypes="ccccccc"
       inkscape:connector-curvature="0"
       id="path4202"
       d="m 701.14655,876.01528 3.8881,-4.25114 6.7588,-0.69497 5.26356,-5.42687 -11.93696,-9.25973 -9.5324,26.46045 z"
       inkscape:transform-center-y="-44.907964"
       style="fill:none;fill-opacity:1;stroke:#73d216;stroke-width:1.92945969;stroke-linecap:round;stroke-linejoin:round;stroke-miterlimit:4;stroke-dasharray:none;stroke-opacity:1" />
    <path
       style="fill:none;fill-opacity:1;stroke:#73d216;stroke-width:1.92945969;stroke-linecap:round;stroke-linejoin:round;stroke-miterlimit:4;stroke-dasharray:none;stroke-opacity:1"
       inkscape:transform-center-y="-44.907964"
       d="m 738.99825,876.37243 -3.8881,-4.25114 -6.7588,-0.69497 -5.26356,-5.42687 11.93696,-9.25973 9.5324,26.46045 z"
       id="path4204"
       inkscape:connector-curvature="0"
       sodipodi:nodetypes="ccccccc"
       inkscape:transform-center-x="-31.868972" />
    <path
       sodipodi:nodetypes="ccccccc"
       inkscape:connector-curvature="0"
       id="path4232"
       d="m 830.57559,705.81522 -10.558,8.48215 -10.3794,-8.48215 7.3995,-47.89289 3.0692,-0.83933 2.9129,0.81701 z"
       inkscape:transform-center-y="-8.7990788"
       style="fill:none;fill-opacity:1;stroke:#73d216;stroke-width:2;stroke-linecap:round;stroke-linejoin:round;stroke-miterlimit:4;stroke-dasharray:none;stroke-opacity:1" />
    <path
       inkscape:transform-center-x="31.86897"
       sodipodi:nodetypes="ccccc"
       inkscape:connector-curvature="0"
       id="path4236"
       d="m 798.67169,675.34697 8.1874,-1.05211 3.1207,-15.78401 -8.7227,7.52598 z"
       inkscape:transform-center-y="-44.907964"
       style="fill:none;fill-opacity:1;stroke:#73d216;stroke-width:1.92945969;stroke-linecap:round;stroke-linejoin:round;stroke-miterlimit:4;stroke-dasharray:none;stroke-opacity:1" />
    <path
       style="fill:none;fill-opacity:1;stroke:#73d216;stroke-width:1.92945969;stroke-linecap:round;stroke-linejoin:round;stroke-miterlimit:4;stroke-dasharray:none;stroke-opacity:1"
       inkscape:transform-center-y="-44.907964"
       d="m 842.42669,674.33681 -8.1874,-1.05211 -3.1207,-15.78401 8.7227,7.52598 z"
       id="path4240"
       inkscape:connector-curvature="0"
       sodipodi:nodetypes="ccccc"
       inkscape:transform-center-x="-31.86897" />
    <path
       style="fill:none;fill-opacity:1;stroke:#73d216;stroke-width:1.92945969;stroke-linecap:round;stroke-linejoin:round;stroke-miterlimit:4;stroke-dasharray:none;stroke-opacity:1"
       inkscape:transform-center-y="-44.907964"
       d="m 793.62093,707.16678 8.1874,-1.05211 3.1207,-15.78401 -8.7227,7.52598 z"
       id="path4244"
       inkscape:connector-curvature="0"
       sodipodi:nodetypes="ccccc"
       inkscape:transform-center-x="31.86897" />
    <path
       inkscape:transform-center-x="-31.86897"
       sodipodi:nodetypes="ccccc"
       inkscape:connector-curvature="0"
       id="path4248"
       d="m 846.97238,705.65154 -8.1874,-1.05211 -3.1207,-15.78401 8.7227,7.52598 z"
       inkscape:transform-center-y="-44.907964"
       style="fill:none;fill-opacity:1;stroke:#73d216;stroke-width:1.92945969;stroke-linecap:round;stroke-linejoin:round;stroke-miterlimit:4;stroke-dasharray:none;stroke-opacity:1" />
    <path
       style="fill:none;fill-opacity:1;stroke:#73d216;stroke-width:1.92945969;stroke-linecap:round;stroke-linejoin:round;stroke-miterlimit:4;stroke-dasharray:none;stroke-opacity:1"
       inkscape:transform-center-y="-44.907964"
       d="m 800.43226,730.30099 3.8881,-4.25114 6.7588,-0.69497 5.26356,-5.42687 -11.93696,-9.25973 -9.5324,26.46045 z"
       id="path4250"
       inkscape:connector-curvature="0"
       sodipodi:nodetypes="ccccccc"
       inkscape:transform-center-x="31.86897" />
    <path
       inkscape:transform-center-x="-31.868972"
       sodipodi:nodetypes="ccccccc"
       inkscape:connector-curvature="0"
       id="path4252"
       d="m 838.28396,730.65814 -3.8881,-4.25114 -6.7588,-0.69497 -5.26356,-5.42687 11.93696,-9.25973 9.5324,26.46045 z"
       inkscape:transform-center-y="-44.907964"
       style="fill:none;fill-opacity:1;stroke:#73d216;stroke-width:1.92945969;stroke-linecap:round;stroke-linejoin:round;stroke-miterlimit:4;stroke-dasharray:none;stroke-opacity:1" />
    <g
       id="g4276"
       inkscape:export-filename="/home/sergi/dev/LD36_ancient_technology/assets/graphics/png/player.png"
       inkscape:export-xdpi="90"
       inkscape:export-ydpi="90">
      <path
         style="fill:none;fill-opacity:1;stroke:#73d216;stroke-width:2;stroke-linecap:round;stroke-linejoin:round;stroke-miterlimit:4;stroke-dasharray:none;stroke-opacity:1"
         inkscape:transform-center-y="-8.7990788"
         d="m 842.40666,958.60568 -10.558,8.48215 -10.3794,-8.48215 7.3995,-47.89289 3.0692,-0.83933 2.9129,0.81701 z"
         id="path4206"
         inkscape:connector-curvature="0"
         sodipodi:nodetypes="ccccccc" />
      <path
         style="fill:none;fill-opacity:1;stroke:#73d216;stroke-width:1.08580267;stroke-linecap:round;stroke-linejoin:round;stroke-miterlimit:4;stroke-dasharray:none;stroke-opacity:1"
         inkscape:transform-center-y="-25.271934"
         d="m 802.62447,994.43059 1.82953,12.79241 4.53409,-22.26693 -4.90869,4.23524 z"
         id="path4210"
         inkscape:connector-curvature="0"
         sodipodi:nodetypes="ccccc"
         inkscape:transform-center-x="17.93425" />
      <path
         style="fill:none;fill-opacity:1;stroke:#73d216;stroke-width:1;stroke-linecap:round;stroke-linejoin:round;stroke-miterlimit:4;stroke-dasharray:none;stroke-opacity:1"
         inkscape:transform-center-y="-44.907964"
         d="m 781.14088,987.81625 3.8881,-4.25114 25.64096,-4.72814 3.37324,-15.0264 -28.57166,12.58726 z"
         id="path4216"
         inkscape:connector-curvature="0"
         sodipodi:nodetypes="cccccc"
         inkscape:transform-center-x="31.86897" />
      <path
         inkscape:transform-center-x="31.86897"
         sodipodi:nodetypes="ccccc"
         inkscape:connector-curvature="0"
         id="path4218"
         d="m 809.10111,957.83234 7.39281,-3.36828 4.25712,-18.30939 -5.94477,6.64209 z"
         inkscape:transform-center-y="-44.907964"
         style="fill:none;fill-opacity:1;stroke:#73d216;stroke-width:1;stroke-linecap:round;stroke-linejoin:round;stroke-miterlimit:4;stroke-dasharray:none;stroke-opacity:1" />
      <path
         inkscape:transform-center-x="31.86897"
         sodipodi:nodetypes="cccccc"
         inkscape:connector-curvature="0"
         id="path4224"
         d="m 813.25554,982.03797 2.37287,5.85039 10.79941,1.0728 -0.0397,-15.5284 -9.66412,-8.50212 z"
         inkscape:transform-center-y="-44.907964"
         style="fill:none;fill-opacity:1;stroke:#73d216;stroke-width:1;stroke-linecap:round;stroke-linejoin:round;stroke-miterlimit:4;stroke-dasharray:none;stroke-opacity:1" />
      <g
         transform="matrix(-1,0,0,1,1729.6225,8.3928571)"
         id="g4262">
        <path
           style="fill:none;fill-opacity:1;stroke:#73d216;stroke-width:1.08580267;stroke-linecap:round;stroke-linejoin:round;stroke-miterlimit:4;stroke-dasharray:none;stroke-opacity:1"
           inkscape:transform-center-y="-25.271934"
           d="m 867.98161,985.85916 1.82953,12.7924 4.53409,-22.26692 -4.90869,4.23524 z"
           id="path4254"
           inkscape:connector-curvature="0"
           sodipodi:nodetypes="ccccc"
           inkscape:transform-center-x="17.93425" />
        <path
           style="fill:none;fill-opacity:1;stroke:#73d216;stroke-width:1;stroke-linecap:round;stroke-linejoin:round;stroke-miterlimit:4;stroke-dasharray:none;stroke-opacity:1"
           inkscape:transform-center-y="-44.907964"
           d="m 846.49802,979.24482 3.8881,-4.25114 25.64096,-4.72814 3.37324,-15.0264 -28.57166,12.58726 z"
           id="path4256"
           inkscape:connector-curvature="0"
           sodipodi:nodetypes="cccccc"
           inkscape:transform-center-x="31.86897" />
        <path
           inkscape:transform-center-x="31.86897"
           sodipodi:nodetypes="ccccc"
           inkscape:connector-curvature="0"
           id="path4258"
           d="m 874.45825,949.26091 7.39281,-3.36828 4.25712,-18.30939 -5.94477,6.64209 z"
           inkscape:transform-center-y="-44.907964"
           style="fill:none;fill-opacity:1;stroke:#73d216;stroke-width:1;stroke-linecap:round;stroke-linejoin:round;stroke-miterlimit:4;stroke-dasharray:none;stroke-opacity:1" />
        <path
           inkscape:transform-center-x="31.86897"
           sodipodi:nodetypes="cccccc"
           inkscape:connector-curvature="0"
           id="path4260"
           d="m 878.61268,973.46654 2.37287,5.85039 10.79941,1.0728 -0.0397,-15.5284 -9.66412,-8.50212 z"
           inkscape:transform-center-y="-44.907964"
           style="fill:none;fill-opacity:1;stroke:#73d216;stroke-width:1;stroke-linecap:round;stroke-linejoin:round;stroke-miterlimit:4;stroke-dasharray:none;stroke-opacity:1" />
      </g>
    </g>
    <g
       id="g4347"
       transform="translate(-27.857143,-49.285714)"
       inkscape:export-filename="/home/sergi/dev/LD36_ancient_technology/assets/graphics/png/meteorito01.png"
       inkscape:export-xdpi="90"
       inkscape:export-ydpi="90">
      <path
         inkscape:connector-curvature="0"
         id="path4307"
         d="m 1243.8175,591.76598 c 0.413,-1.6518 -18.1697,-54.92209 -16.9309,-59.46452 1.2389,-4.54243 6.6072,-29.31931 9.4979,-29.73226 2.8906,-0.41295 82.5895,-21.4733 86.3061,-21.4733 3.7165,0 60.2904,-1.23884 60.2904,-1.23884 0,0 43.3595,40.88185 42.9466,47.90197 -0.413,7.02012 -3.7165,52.85735 -3.7165,59.87747 0,7.02012 -16.105,28.08047 -20.6474,33.86174 -4.5425,5.78127 -40.8819,16.10497 -43.7725,16.51792 -2.8906,0.41295 -83.0026,-4.95538 -83.0026,-4.95538 l -23.538,-6.19422 3.3036,-11.97549 -4.1295,-11.97549 z"
         style="fill:none;fill-rule:evenodd;stroke:#ef2929;stroke-width:0.57812726px;stroke-linecap:butt;stroke-linejoin:miter;stroke-opacity:1" />
      <path
         sodipodi:nodetypes="ccccccccccccc"
         inkscape:connector-curvature="0"
         id="path4309"
         d="m 1231.842,536.43094 11.5626,4.54243 8.6719,7.43306 20.6474,14.45319 5.3683,27.66752 13.6273,5.78127 -2.8906,30.9711 -24.7769,-0.82589 -11.5626,-0.8259 5.7813,-14.45319 c 0,0 -2.4777,-9.08485 -4.1295,-9.91074 -1.6518,-0.8259 -5.7812,-12.38845 -5.7812,-12.38845 z"
         style="fill:none;fill-rule:evenodd;stroke:#ef2929;stroke-width:0.57812726px;stroke-linecap:butt;stroke-linejoin:miter;stroke-opacity:1" />
      <path
         inkscape:connector-curvature="0"
         id="path4311"
         d="m 1398.6731,618.19465 c -3.7166,-0.41294 -22.7122,-6.60717 -22.7122,-6.60717 l -16.5179,-7.43306 -5.3684,4.54243 -6.1942,8.67191 24.7769,4.54242 -7.0201,7.84602 6.1942,4.54242 10.7366,-9.4978 z"
         style="fill:none;fill-rule:evenodd;stroke:#ef2929;stroke-width:0.57812726px;stroke-linecap:butt;stroke-linejoin:miter;stroke-opacity:1" />
      <path
         sodipodi:nodetypes="ccccccccccc"
         inkscape:connector-curvature="0"
         id="path4313"
         d="m 1382.1551,483.98654 -46.2502,14.04023 -42.5336,9.91076 -19.4086,17.34382 2.0648,28.08046 -25.6028,-23.95098 -14.8662,-9.08486 3.3036,-14.04024 30.3517,-8.25896 53.8898,-14.24671 z"
         style="fill:none;fill-rule:evenodd;stroke:#ef2929;stroke-width:0.57812726px;stroke-linecap:butt;stroke-linejoin:miter;stroke-opacity:1" />
    </g>
    <g
       id="g4331"
       transform="matrix(0.20171522,-0.97944422,0.97944422,0.20171522,881.70388,1520.8668)"
       inkscape:export-filename="/home/sergi/dev/LD36_ancient_technology/assets/graphics/png/meteorito03.png"
       inkscape:export-xdpi="90"
       inkscape:export-ydpi="90">
      <path
         style="fill:none;fill-rule:evenodd;stroke:#ef2929;stroke-width:0.8245241px;stroke-linecap:butt;stroke-linejoin:miter;stroke-opacity:1"
         d="m 1256.1077,266.34186 c 0.5889,-2.35579 -25.9136,-78.32979 -24.1468,-84.8082 1.7669,-6.4784 9.5511,-41.22732 13.5458,-42.40409 l 146.7908,-43.241561 c 5.0845,-1.497812 65.2689,30.346371 65.2689,30.346371 0,0 36.2001,26.45728 35.6112,36.46936 -0.589,10.01208 17.3547,87.73658 17.3547,97.74866 0,10.01208 -22.9689,40.04831 -29.4473,48.29355 -6.4784,8.24524 -58.3056,22.96888 -62.4283,23.55783 -4.1226,0.58894 -84.0539,1.84963 -84.0539,1.84963 l -54.801,-24.18051 -14.271,-27.72951 z"
         id="path4323"
         inkscape:connector-curvature="0"
         sodipodi:nodetypes="ccsscsssscccc" />
      <path
         style="fill:none;fill-rule:evenodd;stroke:#ef2929;stroke-width:0.8245241px;stroke-linecap:butt;stroke-linejoin:miter;stroke-opacity:1"
         d="m 1239.0282,187.42312 16.4906,6.47841 12.3679,10.60101 29.4472,20.61311 28.4301,-17.41796 23.772,21.79103 -29.2332,87.50246 -43.582,-22.96888 c 0,0 -3.5337,-12.9568 -5.8894,-14.13469 -2.3559,-1.17789 -8.2453,-17.66837 -8.2453,-17.66837 z"
         id="path4325"
         inkscape:connector-curvature="0"
         sodipodi:nodetypes="ccccccccccc" />
      <path
         style="fill:none;fill-rule:evenodd;stroke:#ef2929;stroke-width:0.8245241px;stroke-linecap:butt;stroke-linejoin:miter;stroke-opacity:1"
         d="m 1490.9385,201.63049 c -5.3006,-0.58894 -99.5686,4.92745 -99.5686,4.92745 l -28.515,57.97352 13.6684,55.26892 53.3234,0.72448 8.8342,6.4784 15.3126,-13.54575 z"
         id="path4327"
         inkscape:connector-curvature="0"
         sodipodi:nodetypes="cccccccc" />
      <path
         style="fill:none;fill-rule:evenodd;stroke:#ef2929;stroke-width:0.8245241px;stroke-linecap:butt;stroke-linejoin:miter;stroke-opacity:1"
         d="m 1424.204,133.59543 -60.2272,52.87773 -31.6939,-12.97381 -33.1821,-1.97776 2.9447,40.0483 -36.5147,-34.15884 -21.202,-12.95681 4.7115,-20.02416 43.2876,-11.77892 76.8574,-20.31863 z"
         id="path4329"
         inkscape:connector-curvature="0"
         sodipodi:nodetypes="ccccccccccc" />
    </g>
    <g
       transform="matrix(0.11124457,-0.54015684,0.54015684,0.11124457,860.05266,1027.9645)"
       id="g4337"
       inkscape:export-filename="/home/sergi/dev/LD36_ancient_technology/assets/graphics/png/meteorito02.png"
       inkscape:export-xdpi="90"
       inkscape:export-ydpi="90">
      <path
         sodipodi:nodetypes="ccccccccccccc"
         inkscape:connector-curvature="0"
         id="path4339"
         d="m 1256.1077,266.34186 -24.1468,-84.8082 37.9764,-41.82522 102.2298,-46.219999 52.951,74.960719 71.2247,-17.61795 14.1895,109.62119 -29.4473,48.29355 -62.4283,23.55783 -84.0539,1.84963 -54.801,-24.18051 -14.271,-27.72951 z"
         style="fill:none;fill-rule:evenodd;stroke:#ef2929;stroke-width:0.8245241px;stroke-linecap:butt;stroke-linejoin:miter;stroke-opacity:1" />
      <path
         sodipodi:nodetypes="cccccccc"
         inkscape:connector-curvature="0"
         id="path4341"
         d="m 1239.0282,187.42312 16.4906,6.47841 41.8151,31.21412 28.4301,-17.41796 -13.3461,64.03249 9.915,23.33664 -31.9456,1.7512 z"
         style="fill:none;fill-rule:evenodd;stroke:#ef2929;stroke-width:0.8245241px;stroke-linecap:butt;stroke-linejoin:miter;stroke-opacity:1" />
      <path
         sodipodi:nodetypes="ccccccc"
         inkscape:connector-curvature="0"
         id="path4343"
         d="m 1490.9385,201.63049 -123.0982,67.74674 -12.5022,31.29934 21.1852,19.12381 33.5852,-58.79419 56.0716,16.27953 z"
         style="fill:none;fill-rule:evenodd;stroke:#ef2929;stroke-width:0.8245241px;stroke-linecap:butt;stroke-linejoin:miter;stroke-opacity:1" />
      <path
         sodipodi:nodetypes="cccccc"
         inkscape:connector-curvature="0"
         id="path4345"
         d="m 1353.1535,115.50125 -25.0415,19.5848 -14.7124,24.14018 2.9447,40.0483 73.3428,-50.95697 z"
         style="fill:none;fill-rule:evenodd;stroke:#ef2929;stroke-width:0.8245241px;stroke-linecap:butt;stroke-linejoin:miter;stroke-opacity:1" />
    </g>
    <rect
       style="fill:none;fill-opacity:1;stroke:#ef2929;stroke-width:1;stroke-linecap:round;stroke-linejoin:round;stroke-miterlimit:4;stroke-dasharray:none;stroke-opacity:1"
       id="rect4353"
       width="319.20819"
       height="228.29448"
       x="141.42136"
       y="160.76118" />
    <rect
       y="69.547874"
       x="172.39766"
       height="91.512878"
       width="127.95605"
       id="rect4355"
       style="fill:none;fill-opacity:1;stroke:#ef2929;stroke-width:0.40085453;stroke-linecap:round;stroke-linejoin:round;stroke-miterlimit:4;stroke-dasharray:none;stroke-opacity:1" />
    <rect
       style="fill:none;fill-opacity:1;stroke:#ef2929;stroke-width:0.40085453;stroke-linecap:round;stroke-linejoin:round;stroke-miterlimit:4;stroke-dasharray:none;stroke-opacity:1"
       id="rect4357"
       width="127.95605"
       height="91.512878"
       x="164.31644"
       y="388.75607" />
    <rect
       y="166.62582"
       x="459.38428"
       height="210.50426"
       width="127.74943"
       id="rect4359"
       style="fill:none;fill-opacity:1;stroke:#ef2929;stroke-width:0.60747051;stroke-linecap:round;stroke-linejoin:round;stroke-miterlimit:4;stroke-dasharray:none;stroke-opacity:1" />
  </g>
</svg>
